<?xml version="1.0" encoding="UTF-8"?>
<svg width="16" height="16" viewBox="0 0 16 16" fill="none" xmlns="http://www.w3.org/2000/svg">
  <path d="M3 2C3 1.44772 3.44772 1 4 1C4.55228 1 5 1.44772 5 2C5 2.55228 4.55228 3 4 3C3.44772 3 3 2.55228 3 2Z" fill="currentColor"/>
  <path d="M11 6C11 5.44772 11.4477 5 12 5C12.5523 5 13 5.44772 13 6C13 6.55228 12.5523 7 12 7C11.4477 7 11 6.55228 11 6Z" fill="currentColor"/>
  <path d="M11 14C11 13.4477 11.4477 13 12 13C12.5523 13 13 13.4477 13 14C13 14.5523 12.5523 15 12 15C11.4477 15 11 14.5523 11 14Z" fill="currentColor"/>
  <path d="M4 3V6C4 7.10457 4.89543 8 6 8H11" stroke="currentColor" strokeWidth="1.5" strokeLinecap="round"/>
  <path d="M12 7V13" stroke="currentColor" strokeWidth="1.5" strokeLinecap="round"/>
</svg> 