<svg xmlns="http://www.w3.org/2000/svg" xmlns:xlink="http://www.w3.org/1999/xlink" width="16" height="16" fill="none" viewBox="0 0 16 16"><defs><rect id="path_0" width="16" height="16" x="0" y="0"/></defs><g opacity="1" transform="translate(0 0) rotate(0 8 8)"><mask id="bg-mask-0" fill="#fff"><use xlink:href="#path_0"/></mask><g mask="url(#bg-mask-0)"><path id="路径 1" style="fill:#333;opacity:1" fill-rule="evenodd" d="M13.1381 3.80474C13.3987 3.54433 13.3987 3.12222 13.1381 2.86181C12.8777 2.6014 12.4556 2.6014 12.1952 2.86181L9.35469 5.70227C8.95767 5.46795 8.49453 5.33333 8 5.33333C6.52724 5.33333 5.33333 6.52724 5.33333 8C5.33333 8.49453 5.46795 8.95767 5.70227 9.35469L2.86181 12.1952C2.6014 12.4556 2.6014 12.8777 2.86181 13.1381C3.12222 13.3987 3.54433 13.3987 3.80474 13.1381L6.6452 10.2976C7.04222 10.532 7.50536 10.6667 8 10.6667C9.47276 10.6667 10.6667 9.47276 10.6667 8C10.6667 7.50536 10.532 7.04222 10.2976 6.6452L13.1381 3.80474ZM8.34533 6.7118C8.2352 6.6824 8.11947 6.66667 8 6.66667C7.26362 6.66667 6.66667 7.26362 6.66667 8C6.66667 8.11947 6.6824 8.2352 6.7118 8.34533L8.34533 6.7118ZM7.65467 9.2882L9.2882 7.65467C9.3176 7.7648 9.33333 7.88053 9.33333 8C9.33333 8.73638 8.73638 9.33333 8 9.33333C7.88053 9.33333 7.7648 9.3176 7.65467 9.2882ZM10.5101 3.2138C9.75247 2.88033 8.91167 2.66667 8 2.66667C6.09836 2.66667 4.50478 3.59641 3.33208 4.60397C2.15513 5.61518 1.33838 6.7584 0.975913 7.3132C0.70204 7.73233 0.70204 8.26767 0.975913 8.6868C1.28184 9.15507 1.91137 10.0425 2.80796 10.9159L3.75084 9.97307C2.97033 9.21527 2.40763 8.4354 2.12001 8C2.46027 7.48493 3.18555 6.48772 4.20098 5.61529C5.24935 4.71457 6.54383 4 8 4C8.5146 4 9.009 4.08923 9.47953 4.24439L10.5101 3.2138ZM8 12C7.4854 12 6.991 11.9108 6.52047 11.7556L5.48987 12.7862C6.24753 13.1197 7.08833 13.3333 8 13.3333C9.90164 13.3333 11.4952 12.4036 12.6679 11.396C13.8449 10.3848 14.6616 9.2416 15.0241 8.6868C15.298 8.26767 15.298 7.73233 15.0241 7.3132C14.7182 6.84493 14.0886 5.95747 13.192 5.08407L12.2492 6.02693C13.0297 6.78473 13.5924 7.5646 13.88 8C13.5397 8.51507 12.8145 9.51228 11.799 10.3847C10.7507 11.2854 9.45617 12 8 12Z" clip-rule="evenodd"/></g></g></svg>